<svg id="Calque_1" data-name="Calque 1" xmlns="http://www.w3.org/2000/svg" viewBox="0 0 185.74 50.02"><defs><style>.cls-1{fill:#1d1d1b;}.cls-2{fill:#2fac66;}</style></defs><title>Logo-Julien_VF</title><path class="cls-1" d="M.09,22.64l1.77-2.09a12,12,0,0,0,8.65,3.57c3.39,0,5.62-1.8,5.62-4.29v-.07c0-2.34-1.26-3.68-6.56-4.8C3.77,13.7,1.1,11.83,1.1,7.68V7.61c0-4,3.5-6.89,8.29-6.89a13.17,13.17,0,0,1,8.87,3.1L16.6,6A11.09,11.09,0,0,0,9.32,3.28C6,3.28,3.95,5.08,3.95,7.35v.07c0,2.38,1.3,3.71,6.85,4.9S19,15.61,19,19.47v.07c0,4.33-3.61,7.14-8.62,7.14A14.77,14.77,0,0,1,.09,22.64Z"/><path class="cls-1" d="M22.73,31.26l.94-2.2a5.83,5.83,0,0,0,2.92.69c1.66,0,2.7-.87,3.82-3.5L21.94,7.68H25l6.78,15.54,6-15.54h3L32.9,26.93c-1.59,3.86-3.39,5.26-6.2,5.26A8.47,8.47,0,0,1,22.73,31.26Z"/><path class="cls-1" d="M45.12,7.68h2.78v3.14c1.23-1.84,2.88-3.53,6-3.53a6.33,6.33,0,0,1,6,3.71,7.43,7.43,0,0,1,6.56-3.71c4.29,0,6.92,2.88,6.92,7.5V26.32H70.61V15.43c0-3.61-1.8-5.62-4.83-5.62-2.81,0-5.15,2.09-5.15,5.77V26.32H57.88v-11c0-3.5-1.84-5.55-4.8-5.55s-5.19,2.45-5.19,5.88V26.32H45.12Z"/><path class="cls-1" d="M79.4,7.68h2.78v3.75a8.38,8.38,0,0,1,7.14-4.15c4.47,0,8.9,3.53,8.9,9.66V17c0,6.09-4.4,9.7-8.9,9.7a8.41,8.41,0,0,1-7.14-4v9.34H79.4Zm16,9.37V17c0-4.4-3-7.21-6.56-7.21a7,7,0,0,0-6.74,7.17V17a6.94,6.94,0,0,0,6.74,7.21C92.42,24.23,95.37,21.56,95.37,17.05Z"/><path class="cls-1" d="M103.34,0h2.78V10.92a7.06,7.06,0,0,1,6.38-3.64c4.51,0,7.14,3,7.14,7.46V26.32h-2.78V15.43c0-3.46-1.88-5.62-5.16-5.62a5.48,5.48,0,0,0-5.59,5.84V26.32h-2.78Z"/><path class="cls-2" d="M136,23.82a7.71,7.71,0,0,0,4.8-4.29l2.12,1a9.62,9.62,0,0,1-6.26,5.66c-4.88,1.55-10.06-.92-11.82-6.45-1.64-5.15.65-10.42,5.56-12C135.63,6,140,9.26,141.65,14.48c.08.24.16.52.26.94L127.83,19.9A6.51,6.51,0,0,0,136,23.82Zm2.63-9.69C137.25,11,134.52,8.84,131,10c-3.06,1-4.58,4.26-3.87,7.82Z"/><path class="cls-1" d="M146.89,7.68h2.78v3.25A7.06,7.06,0,0,1,156,7.28c4.51,0,7.14,3,7.14,7.46V26.32h-2.78V15.43c0-3.46-1.87-5.62-5.15-5.62a5.48,5.48,0,0,0-5.59,5.84V26.32h-2.78Z"/><path class="cls-1" d="M167.48,31.26l.94-2.2a5.83,5.83,0,0,0,2.92.69c1.66,0,2.7-.87,3.82-3.5L166.68,7.68h3.06l6.78,15.54,6-15.54h3l-7.82,19.25c-1.59,3.86-3.39,5.26-6.2,5.26A8.47,8.47,0,0,1,167.48,31.26Z"/><path class="cls-1" d="M.09,44.63v0a3.71,3.71,0,1,1,7.42,0v0a3.71,3.71,0,1,1-7.42,0Zm6.86,0v0a3.19,3.19,0,0,0-3.15-3.32,3.16,3.16,0,0,0-3.13,3.3v0a3.19,3.19,0,0,0,3.15,3.32A3.16,3.16,0,0,0,6.94,44.63Z"/><path class="cls-1" d="M9.27,42.92h.52v1.53a2.54,2.54,0,0,1,2.38-1.61v.57h-.05A2.4,2.4,0,0,0,9.79,46.1v2.2H9.27Z"/><path class="cls-1" d="M12.86,45.63v0A2.79,2.79,0,0,1,15.6,42.8a2.82,2.82,0,0,1,2.15,1l-.37.38a2.42,2.42,0,0,0-1.79-.89,2.22,2.22,0,0,0-2.17,2.31v0a2.26,2.26,0,0,0,2.22,2.33,2.4,2.4,0,0,0,1.8-.9l.36.32a2.76,2.76,0,0,1-4.93-1.73Z"/><path class="cls-1" d="M19.25,40.6h.52v3.32a2.1,2.1,0,0,1,1.94-1.13A2,2,0,0,1,23.86,45V48.3h-.52v-3.2a1.64,1.64,0,0,0-1.71-1.84,1.84,1.84,0,0,0-1.87,1.92V48.3h-.52Z"/><path class="cls-1" d="M25.35,45.62v0A2.65,2.65,0,0,1,27.9,42.8a2.55,2.55,0,0,1,2.47,2.82,1.38,1.38,0,0,1,0,.21H25.9A2.13,2.13,0,0,0,28,47.94a2.41,2.41,0,0,0,1.85-.84l.36.32a2.83,2.83,0,0,1-2.22,1A2.67,2.67,0,0,1,25.35,45.62Zm4.46-.26a2,2,0,0,0-1.93-2.09,2.1,2.1,0,0,0-2,2.09Z"/><path class="cls-1" d="M31.42,47.63l.31-.41a3.15,3.15,0,0,0,1.93.71c.73,0,1.3-.4,1.3-1v0c0-.63-.67-.86-1.42-1.08s-1.85-.52-1.85-1.48v0a1.58,1.58,0,0,1,1.77-1.49,3.63,3.63,0,0,1,1.91.59l-.27.43a3.09,3.09,0,0,0-1.66-.54c-.74,0-1.22.4-1.22.94v0c0,.6.73.82,1.5,1s1.77.56,1.77,1.51v0a1.67,1.67,0,0,1-1.86,1.57A3.68,3.68,0,0,1,31.42,47.63Z"/><path class="cls-1" d="M37.3,46.92V43.4h-.78v-.47h.78V41.2h.52v1.72h1.89v.47H37.82v3.47a.94.94,0,0,0,1.08,1,1.81,1.81,0,0,0,.79-.19v.48a2,2,0,0,1-.88.19A1.38,1.38,0,0,1,37.3,46.92Z"/><path class="cls-1" d="M41.24,42.92h.52v1.53a2.54,2.54,0,0,1,2.38-1.61v.57h-.05a2.4,2.4,0,0,0-2.33,2.69v2.2h-.52Z"/><path class="cls-1" d="M44.75,46.74v0c0-1.12,1-1.75,2.35-1.75a6.49,6.49,0,0,1,1.78.23V45a1.55,1.55,0,0,0-1.77-1.65,3.6,3.6,0,0,0-1.69.43l-.19-.45a4.31,4.31,0,0,1,1.91-.46,2.32,2.32,0,0,1,1.7.59,2,2,0,0,1,.55,1.52V48.3h-.51v-.9a2.44,2.44,0,0,1-2.06,1A1.87,1.87,0,0,1,44.75,46.74Zm4.14-.45v-.61a7.14,7.14,0,0,0-1.82-.24c-1.14,0-1.77.51-1.77,1.25v0c0,.78.74,1.23,1.56,1.23A1.85,1.85,0,0,0,48.9,46.29Z"/><path class="cls-1" d="M51.49,46.92V43.4h-.78v-.47h.78V41.2H52v1.72h1.89v.47H52v3.47a.94.94,0,0,0,1.08,1,1.81,1.81,0,0,0,.79-.19v.48a2,2,0,0,1-.88.19A1.38,1.38,0,0,1,51.49,46.92Z"/><path class="cls-1" d="M55.43,40.81h.64v.71h-.64Zm.06,2.11H56V48.3H55.5Z"/><path class="cls-1" d="M58,42.92h.52v1a2.1,2.1,0,0,1,1.94-1.13A2,2,0,0,1,62.66,45V48.3h-.52v-3.2a1.64,1.64,0,0,0-1.71-1.84,1.84,1.84,0,0,0-1.87,1.92V48.3H58Z"/><path class="cls-1" d="M64.41,49.19l.31-.42a3.51,3.51,0,0,0,2.17.76A1.93,1.93,0,0,0,69,47.44v-.78a2.67,2.67,0,0,1-2.25,1.24,2.55,2.55,0,0,1-2.58-2.53v0a2.56,2.56,0,0,1,2.58-2.55A2.67,2.67,0,0,1,69,44V42.92h.52v4.55a2.49,2.49,0,0,1-.69,1.82,2.72,2.72,0,0,1-2,.72A4.07,4.07,0,0,1,64.41,49.19ZM69,45.36v0a2.13,2.13,0,0,0-2.22-2,2,2,0,0,0-2.08,2v0a2,2,0,0,0,2.08,2.06A2.15,2.15,0,0,0,69,45.36Z"/><path class="cls-2" d="M74.72,40.6h.52v7.7h-.52Z"/><path class="cls-2" d="M76.9,45.63v0a2.78,2.78,0,0,1,2.77-2.82,2.75,2.75,0,0,1,2.75,2.8v0a2.78,2.78,0,0,1-2.77,2.82A2.75,2.75,0,0,1,76.9,45.63Zm5,0v0a2.26,2.26,0,0,0-2.22-2.33,2.22,2.22,0,0,0-2.19,2.31v0a2.25,2.25,0,0,0,2.21,2.33A2.22,2.22,0,0,0,81.87,45.63Z"/><path class="cls-2" d="M83.66,45.63v0A2.79,2.79,0,0,1,86.4,42.8a2.82,2.82,0,0,1,2.15,1l-.37.38a2.42,2.42,0,0,0-1.79-.89,2.22,2.22,0,0,0-2.17,2.31v0a2.26,2.26,0,0,0,2.22,2.33,2.4,2.4,0,0,0,1.8-.9l.36.32a2.76,2.76,0,0,1-4.93-1.73Z"/><path class="cls-2" d="M89.61,46.74v0c0-1.12,1-1.75,2.35-1.75a6.49,6.49,0,0,1,1.78.23V45A1.55,1.55,0,0,0,92,43.32a3.6,3.6,0,0,0-1.69.43l-.19-.45A4.31,4.31,0,0,1,92,42.84a2.32,2.32,0,0,1,1.7.59,2,2,0,0,1,.55,1.52V48.3h-.51v-.9a2.44,2.44,0,0,1-2.06,1A1.87,1.87,0,0,1,89.61,46.74Zm4.14-.45v-.61a7.14,7.14,0,0,0-1.82-.24c-1.14,0-1.77.51-1.77,1.25v0c0,.78.74,1.23,1.56,1.23A1.85,1.85,0,0,0,93.75,46.29Z"/><path class="cls-2" d="M96.18,40.6h.52v7.7h-.52Z"/><path class="cls-2" d="M101.53,45.62v0a2.65,2.65,0,0,1,2.55-2.81,2.55,2.55,0,0,1,2.47,2.82,1.38,1.38,0,0,1,0,.21h-4.46a2.13,2.13,0,0,0,2.11,2.12A2.41,2.41,0,0,0,106,47.1l.36.32a2.83,2.83,0,0,1-2.23,1A2.67,2.67,0,0,1,101.53,45.62Zm4.46-.26a2,2,0,0,0-1.93-2.09,2.1,2.1,0,0,0-2,2.09Z"/><path class="cls-2" d="M108.06,42.92h.52v1a2.1,2.1,0,0,1,1.94-1.13A2,2,0,0,1,112.67,45V48.3h-.52v-3.2a1.64,1.64,0,0,0-1.71-1.84,1.84,1.84,0,0,0-1.87,1.92V48.3h-.52Z"/><path class="cls-2" d="M114.16,45.62v0a2.65,2.65,0,0,1,2.55-2.81,2.55,2.55,0,0,1,2.47,2.82,1.38,1.38,0,0,1,0,.21h-4.46a2.13,2.13,0,0,0,2.11,2.12,2.41,2.41,0,0,0,1.85-.84l.36.32a2.83,2.83,0,0,1-2.22,1A2.67,2.67,0,0,1,114.16,45.62Zm4.46-.26a2,2,0,0,0-1.93-2.09,2.1,2.1,0,0,0-2,2.09Z"/><path class="cls-2" d="M120.69,42.92h.52v1.53a2.54,2.54,0,0,1,2.38-1.61v.57h-.05a2.4,2.4,0,0,0-2.33,2.69v2.2h-.52Z"/><path class="cls-2" d="M124.55,49.19l.31-.42a3.51,3.51,0,0,0,2.17.76,1.93,1.93,0,0,0,2.11-2.09v-.78a2.67,2.67,0,0,1-2.25,1.24,2.55,2.55,0,0,1-2.58-2.53v0a2.56,2.56,0,0,1,2.58-2.55,2.67,2.67,0,0,1,2.25,1.2V42.92h.52v4.55a2.49,2.49,0,0,1-.69,1.82,2.72,2.72,0,0,1-2,.72A4.06,4.06,0,0,1,124.55,49.19Zm4.62-3.83v0a2.14,2.14,0,0,0-2.23-2,2,2,0,0,0-2.08,2v0a2,2,0,0,0,2.08,2.06A2.15,2.15,0,0,0,129.16,45.36Z"/><path class="cls-2" d="M131.2,49.79l.18-.45a1.88,1.88,0,0,0,.92.2c.56,0,.93-.33,1.33-1.27L131,42.92h.6l2.24,4.81,1.94-4.81h.57l-2.33,5.57c-.47,1.13-1,1.53-1.79,1.53A2.43,2.43,0,0,1,131.2,49.79Z"/><path class="cls-1" d="M140.52,47.63l.31-.41a3.15,3.15,0,0,0,1.93.71c.73,0,1.3-.4,1.3-1v0c0-.63-.67-.86-1.42-1.08s-1.85-.52-1.85-1.48v0a1.58,1.58,0,0,1,1.77-1.49,3.63,3.63,0,0,1,1.91.59l-.27.43a3.09,3.09,0,0,0-1.66-.54c-.74,0-1.22.4-1.22.94v0c0,.6.73.82,1.5,1s1.77.56,1.77,1.51v0a1.67,1.67,0,0,1-1.86,1.57A3.68,3.68,0,0,1,140.52,47.63Z"/><path class="cls-1" d="M145.86,45.63v0a2.78,2.78,0,0,1,2.77-2.82,2.75,2.75,0,0,1,2.75,2.8v0a2.78,2.78,0,0,1-2.77,2.82A2.75,2.75,0,0,1,145.86,45.63Zm5,0v0a2.26,2.26,0,0,0-2.21-2.33,2.22,2.22,0,0,0-2.19,2.31v0a2.25,2.25,0,0,0,2.21,2.33A2.22,2.22,0,0,0,150.83,45.63Z"/><path class="cls-1" d="M153.06,40.6h.52v7.7h-.52Z"/><path class="cls-1" d="M155.5,46.21V42.92H156v3.2A1.64,1.64,0,0,0,157.73,48,1.84,1.84,0,0,0,159.6,46V42.92h.52V48.3h-.52v-1a2.1,2.1,0,0,1-1.94,1.13A2,2,0,0,1,155.5,46.21Z"/><path class="cls-1" d="M162.36,46.92V43.4h-.78v-.47h.78V41.2h.52v1.72h1.89v.47h-1.89v3.47a.94.94,0,0,0,1.08,1,1.81,1.81,0,0,0,.79-.19v.48a2,2,0,0,1-.88.19A1.38,1.38,0,0,1,162.36,46.92Z"/><path class="cls-1" d="M166.31,40.81H167v.71h-.64Zm.06,2.11h.52V48.3h-.52Z"/><path class="cls-1" d="M168.56,45.63v0a2.78,2.78,0,0,1,2.77-2.82,2.75,2.75,0,0,1,2.75,2.8v0a2.78,2.78,0,0,1-2.77,2.82A2.75,2.75,0,0,1,168.56,45.63Zm5,0v0a2.26,2.26,0,0,0-2.21-2.33,2.22,2.22,0,0,0-2.19,2.31v0a2.25,2.25,0,0,0,2.21,2.33A2.22,2.22,0,0,0,173.52,45.63Z"/><path class="cls-1" d="M175.68,42.92h.52v1a2.11,2.11,0,0,1,1.94-1.13A2,2,0,0,1,180.29,45V48.3h-.52v-3.2a1.64,1.64,0,0,0-1.71-1.84,1.84,1.84,0,0,0-1.87,1.92V48.3h-.52Z"/><path class="cls-1" d="M181.68,47.63l.31-.41a3.16,3.16,0,0,0,1.93.71c.73,0,1.3-.4,1.3-1v0c0-.63-.67-.86-1.42-1.08s-1.85-.52-1.85-1.48v0a1.58,1.58,0,0,1,1.77-1.49,3.63,3.63,0,0,1,1.91.59l-.27.43a3.09,3.09,0,0,0-1.66-.54c-.74,0-1.22.4-1.22.94v0c0,.6.73.82,1.5,1s1.77.56,1.77,1.51v0a1.67,1.67,0,0,1-1.86,1.57A3.69,3.69,0,0,1,181.68,47.63Z"/></svg>